<?xml version="1.0" encoding="UTF-8"?>
<svg version="1.1" xmlns="http://www.w3.org/2000/svg" width="50" height="50">
<path d="M0 0 C5.14184222 1.70020835 9.37524372 4.66361956 13.8125 7.6875 C14.60076172 8.19216797 15.38902344 8.69683594 16.20117188 9.21679688 C19.87768421 11.73465078 21.70831526 13.11384358 23.12890625 17.4296875 C21.32441228 23.13663384 17.00597162 25.29117109 12.125 28.4375 C11.18785156 29.07365234 10.25070312 29.70980469 9.28515625 30.36523438 C2.36536654 35 2.36536654 35 0 35 C-0.81404963 31.74380149 -1.01399248 29.22588784 0 26 C3.66706299 22.73502725 7.7007905 20.34793138 12 18 C9.21730153 15.10195651 6.68561717 12.66138311 3.1875 10.6875 C0.94905847 9.1758252 0.12369402 8.58157891 -0.4453125 5.90625 C-0.4375 3.6875 -0.4375 3.6875 0 0 Z " fill="#010101" transform="translate(3,3)"/>
<path d="M0 0 C7.26 0 14.52 0 22 0 C22 1.32 22 2.64 22 4 C14.74 4 7.48 4 0 4 C0 2.68 0 1.36 0 0 Z " fill="#010101" transform="translate(24,42)"/>
</svg>
